<?xml version="1.0" encoding="UTF-8"?>
<svg id="Capa_1" xmlns="http://www.w3.org/2000/svg" version="1.1" viewBox="0 0 270.7 339.8">
  <!-- Generator: Adobe Illustrator 29.3.0, SVG Export Plug-In . SVG Version: 2.1.0 Build 146)  -->
  <defs>
    <style>
      .st0 {
        fill: #fff;
      }
    </style>
  </defs>
  <path class="st0" d="M151.6,125.6c.8.6,1.9.9,3.2.9s2.4-.3,3.2-.9c.8-.6,1.4-1.5,1.8-2.7.4-1.2.6-2.5.6-4.1,0-2.4-.4-4.3-1.3-5.7-.8-1.4-2.3-2.1-4.3-2.1s-2.4.3-3.3.9c-.8.6-1.4,1.5-1.8,2.7-.4,1.2-.6,2.5-.6,4.1s.2,3,.6,4.1c.4,1.2,1,2,1.8,2.7h.1Z"/>
  <path class="st0" d="M211.4,275.9c-1.9,0-3.4.4-4.5,1.3-1.1.9-2,2.1-2.5,3.7-.5,1.6-.8,3.5-.8,5.7s.3,4.1.8,5.7c.5,1.6,1.4,2.8,2.5,3.7s2.6,1.3,4.4,1.3,3.3-.4,4.4-1.3c1.1-.9,2-2.1,2.5-3.7.5-1.6.8-3.5.8-5.7,0-3.3-.6-5.9-1.8-7.8-1.2-1.9-3.1-2.9-5.9-2.9h.1Z"/>
  <path class="st0" d="M0,0v193.6l11.2,11.2L0,216v103.1c0,11.4,9.3,20.7,20.7,20.7h103.7l10.9-10.9,10.9,10.9h103.9c11.4,0,20.7-9.3,20.7-20.7v-102.9l-11.4-11.4,11.4-11.4V0M227,182.1v33.7h0l-37-13.1-11.7-4.1h0c4.1-5.2,7.7-10.7,11-16.5h37.8-.1ZM142.7,197.9c.2-.1.3-.2.5-.4,0,0,.2-.2.3-.2.7-.7,1.3-1.5,2-2.3l.4.2,7.7,3.6,1.4.7,2.1,1,3.7,1.7c-1.1,1.2-2.3,2.3-3.5,3.4-.2.2-.5.4-.7.6-2,1.8-4.1,3.6-6.2,5.3l-1-.7-4.1-3-3.8-2.8-3.9-2.9h-.1c1.8-1.4,3.6-2.8,5.3-4.3h0ZM135.3,190.2c-2.1,2.1-4.7,3.8-7.6,4.8-2.1.7-4.3,1.2-6.7,1.2s-1.3,0-1.9,0c-5-.5-9.5-2.8-12.7-6.3h0l2-.6,1.8-.6,5.3-1.7c.7.4,1.4.6,2.1.9,1.1.3,2.2.5,3.4.5,2,0,3.9-.5,5.5-1.3.2,0,.5-.3.7-.4.3-.2.5-.3.8-.5.7-.5,1.3-1.1,1.9-1.7,0,0,.2-.2.2-.3.5-.6.9-1.2,1.3-1.8h8.7c-.3.9-.6,1.8-1.1,2.7-1,2-2.2,3.8-3.8,5.4v-.3ZM149.3,188.4c.9-2,1.5-4.1,1.9-6.3h25.5c-2.8,4.5-5.9,8.7-9.2,12.7l-5.1-1.8-1-.3-6.4-2.2-3.2-1.1-2.5-.9h0ZM152.1,223.8h0l9.3,7.8,14.9,12.5,1.2,1,1.8,1.5h-12.5l-11.7-10.5-9.1-8.1h0c2.1-1.3,4.1-2.7,6.1-4.2ZM169.1,225.4l-9.8-7.1h0c4.1-3.5,8.1-7.2,11.7-11.2h0l11.1,5.2,33.8,15.9v18.5h-17.8l-29.1-21.3h.1ZM203.6,106.5h7.5l9.9,17.8h.1v-17.8h5.3v24.6h-7.6l-9.9-18h-.1c0,.7,0,1.4.1,2.2,0,.8,0,1.5.1,2.3v13.6h-5.2v-24.6h-.2ZM183.1,106.5h14.4v4.8h-8.5v4.7h7.9v4.8h-7.9v5.5h8.5v4.8h-14.4v-24.6ZM182.2,156.9h30c-1.3,4.7-2.8,9.3-4.6,13.8h-31.4c2.3-4.4,4.3-9,6-13.8ZM144.3,112.1c.8-1.9,2.1-3.4,3.9-4.4,1.7-1,4-1.5,6.7-1.5s4.9.5,6.7,1.6c1.7,1,3,2.5,3.9,4.4.8,1.9,1.2,4.1,1.2,6.7s-.2,3.6-.7,5.2c-.5,1.5-1.2,2.9-2.1,4-1,1.1-2.2,2-3.7,2.6s-3.3.9-5.3.9-3.8-.3-5.3-.9-2.7-1.5-3.7-2.6-1.7-2.5-2.2-4-.7-3.3-.7-5.2.4-4.8,1.3-6.7h0ZM116.3,106.5h5.9v9.4h8.8v-9.4h5.9v24.6h-5.9v-10.3h-8.8v10.3h-5.9s0-24.6,0-24.6ZM92.4,113.8c.5-1.5,1.3-2.9,2.3-4s2.3-2,3.7-2.6c1.5-.6,3.2-.9,5.1-.9s2.5,0,3.8.4c1.3.3,2.5.7,3.7,1.2l-1.9,4.7c-.8-.4-1.7-.8-2.7-1.1-.9-.3-1.9-.4-2.9-.4s-1.7.2-2.4.6c-.7.4-1.3.9-1.8,1.6-.5.7-.9,1.5-1.2,2.5-.3,1-.4,2.1-.4,3.3s.2,3.1.7,4.2c.4,1.1,1.1,2,2,2.6s2,.9,3.4.9,2.1,0,3.1-.4c1-.3,2-.6,3-1v5c-1,.5-2.1.8-3.2,1s-2.3.3-3.6.3c-2.6,0-4.8-.5-6.5-1.6s-2.9-2.5-3.8-4.4c-.8-1.9-1.2-4.1-1.2-6.6s.3-3.6.8-5.1v-.2ZM90.8,170.8l10.5-4.3,3.1-1.2,21-8.5h46.9c-1.9,4.8-4.1,9.4-6.6,13.8h-37.5l-11,4.1-5.2,1.9-2.7,1-4.6,1.7-1.5.6-1.5.6-.7.2-3.6,1.3-1.8.7-.7-.7-4.4-4-5.4-4.9h0l4.8-1.9,1.1-.4h-.2ZM72.2,106.5h14.4v4.8h-8.5v4.7h7.9v4.8h-7.9v5.5h8.5v4.8h-14.4v-24.6ZM44.5,106.5h5.9v9.4h8.8v-9.4h5.9v24.6h-5.9v-10.3h-8.8v10.3h-5.9s0-24.6,0-24.6ZM44.5,201.8v-.3c2.6-8.6,10.5-14.5,19.5-14.5h20.3l43.1,38.8v4.3h-34.7l-16.3-12.7h-14.6c-2.4,0-4.6,1.6-5.4,3.9l-.6,1.9c-.4,1.1-1.8,1.4-2.5.5l-.6-.4c-7.2-4.5-10.6-13.4-8.1-21.6h0ZM105.6,262.1c-.6.5-1.3,1-2,1.5-.9.7-1.8,1.3-2.6,1.9-.9.6-1.6,1.1-2.2,1.5h-5.3v-.7c.5-.6,1.2-1.3,1.9-2.1.6-.7,1.3-1.5,1.9-2.2h8.3,0ZM80.3,303.6h-7.5v-19c0-1.3,0-2.6,0-3.7,0-1.2,0-2.1,0-2.7h-.2l-7.8,25.5h-7.6l-7.6-25.5h-.2c0,.6,0,1.5.2,2.7,0,1.2,0,2.4.2,3.8v19h-7.2v-33.8h10.9l7.5,25h.2l7.8-25h10.8v33.8h.3ZM108,276.3h-11.7v6.5h10.8v6.5h-10.8v7.6h11.7v6.6h-19.7v-33.8h19.7v6.5h0ZM133.9,303.6l-7.1-11.4-7.1,11.4h-9.1l11.2-17.3-10.5-16.5h9l6.5,11,6.4-11h9.2l-10.6,17,11.5,16.8h-9.4,0ZM137.6,220.5l-4.7-4.2-7.4-6.6-3-2.7c2.7-.1,5.4-.6,7.9-1.4l.9.8,7.5,6.3,4.8,4c-1.9,1.3-3.9,2.6-6,3.9h0ZM161.4,274.4l-4.2,1.8v21.1l4.2,1.8v4.6h-16.4v-4.6l4.2-1.8v-21.1l-4.2-1.8v-4.6h16.4v4.6ZM174.7,292.6c.6,1.6,1.5,2.8,2.8,3.6,1.2.8,2.8,1.2,4.6,1.2s2.9-.2,4.3-.6c1.4-.4,2.8-.9,4.2-1.4v6.9c-1.4.6-2.9,1.1-4.4,1.4-1.5.3-3.2.4-4.9.4-3.6,0-6.6-.7-8.9-2.2-2.3-1.5-4-3.5-5.2-6.1-1.1-2.6-1.7-5.6-1.7-9.1s.4-4.9,1.1-7c.7-2.1,1.8-4,3.1-5.5,1.4-1.6,3.1-2.8,5.1-3.6,2-.9,4.4-1.3,7-1.3s3.4.2,5.2.6c1.8.4,3.5.9,5.1,1.7l-2.6,6.4c-1.2-.6-2.4-1-3.7-1.4s-2.6-.6-4-.6-2.3.3-3.3.8-1.8,1.2-2.5,2.2c-.7.9-1.2,2.1-1.6,3.4-.4,1.3-.5,2.8-.5,4.5s.3,4.2.9,5.8h-.1ZM226.6,293.8c-.6,2.1-1.6,4-2.9,5.5-1.3,1.5-3,2.7-5,3.5-2.1.8-4.5,1.2-7.3,1.2s-5.2-.4-7.3-1.2-3.7-2-5.1-3.5c-1.3-1.5-2.3-3.4-3-5.5-.6-2.1-1-4.5-1-7.2s.6-6.6,1.8-9.2c1.2-2.6,2.9-4.6,5.3-6,2.4-1.4,5.5-2.1,9.2-2.1s6.8.7,9.2,2.2c2.4,1.4,4.2,3.5,5.3,6.1s1.7,5.7,1.7,9.2-.3,5-1,7.1h.1Z"/>
</svg>